<?xml version="1.0" encoding="UTF-8"?>
<svg xmlns="http://www.w3.org/2000/svg" xmlns:xlink="http://www.w3.org/1999/xlink" width="1920" height="1080" viewBox="0 0 1920 1080">
<defs>
<g>
<g id="glyph-0-0">
<path d="M 0.578125 -0.257812 L 0.578125 -3.539062 L 0.144531 -3.539062 L 0.144531 -3.796875 L 1.023438 -3.796875 L 1.023438 -2.191406 C 1.113281 -2.351562 1.226562 -2.472656 1.359375 -2.550781 C 1.496094 -2.628906 1.664062 -2.664062 1.867188 -2.664062 C 2.183594 -2.664062 2.445312 -2.539062 2.648438 -2.289062 C 2.847656 -2.035156 2.949219 -1.707031 2.949219 -1.296875 C 2.949219 -0.890625 2.847656 -0.5625 2.648438 -0.308594 C 2.445312 -0.0546875 2.183594 0.0703125 1.867188 0.0703125 C 1.664062 0.0703125 1.496094 0.03125 1.359375 -0.046875 C 1.226562 -0.121094 1.113281 -0.242188 1.023438 -0.40625 L 1.023438 0 L 0.144531 0 L 0.144531 -0.257812 L 0.578125 -0.257812 M 1.023438 -1.167969 C 1.023438 -0.855469 1.085938 -0.617188 1.203125 -0.457031 C 1.324219 -0.292969 1.5 -0.210938 1.726562 -0.210938 C 1.957031 -0.210938 2.128906 -0.300781 2.246094 -0.484375 C 2.367188 -0.667969 2.425781 -0.941406 2.425781 -1.296875 C 2.425781 -1.660156 2.367188 -1.929688 2.246094 -2.113281 C 2.128906 -2.292969 1.957031 -2.386719 1.726562 -2.386719 C 1.5 -2.386719 1.324219 -2.304688 1.203125 -2.140625 C 1.085938 -1.972656 1.023438 -1.738281 1.023438 -1.425781 Z "/>
</g>
<g id="glyph-0-1">
<path d="M 1.023438 -0.257812 L 1.449219 -0.257812 L 1.449219 0 L 0.144531 0 L 0.144531 -0.257812 L 0.578125 -0.257812 L 0.578125 -3.539062 L 0.144531 -3.539062 L 0.144531 -3.796875 L 1.023438 -3.796875 Z "/>
</g>
<g id="glyph-0-2">
<path d="M 1.769531 -2.59375 L 2.609375 -2.59375 L 2.609375 -0.257812 L 3.035156 -0.257812 L 3.035156 0 L 2.160156 0 L 2.160156 -0.460938 C 2.078125 -0.285156 1.96875 -0.15625 1.839844 -0.0664062 C 1.707031 0.0273438 1.554688 0.0703125 1.378906 0.0703125 C 1.089844 0.0703125 0.878906 -0.0117188 0.742188 -0.175781 C 0.609375 -0.339844 0.539062 -0.59375 0.539062 -0.945312 L 0.539062 -2.335938 L 0.132812 -2.335938 L 0.132812 -2.59375 L 0.992188 -2.59375 L 0.992188 -1.085938 C 0.992188 -0.769531 1.03125 -0.550781 1.105469 -0.433594 C 1.183594 -0.316406 1.324219 -0.257812 1.519531 -0.257812 C 1.730469 -0.257812 1.886719 -0.335938 1.996094 -0.488281 C 2.105469 -0.640625 2.160156 -0.863281 2.160156 -1.15625 L 2.160156 -2.335938 L 1.769531 -2.335938 Z "/>
</g>
<g id="glyph-0-3">
<path d="M 2.390625 -2.601562 L 2.390625 -1.949219 L 2.132812 -1.949219 C 2.125 -2.078125 2.085938 -2.175781 2.023438 -2.238281 C 1.960938 -2.300781 1.867188 -2.335938 1.746094 -2.335938 C 1.523438 -2.335938 1.355469 -2.257812 1.238281 -2.105469 C 1.117188 -1.953125 1.058594 -1.730469 1.058594 -1.445312 L 1.058594 -0.257812 L 1.578125 -0.257812 L 1.578125 0 L 0.203125 0 L 0.203125 -0.257812 L 0.609375 -0.257812 L 0.609375 -2.339844 L 0.179688 -2.339844 L 0.179688 -2.59375 L 1.058594 -2.59375 L 1.058594 -2.132812 C 1.148438 -2.3125 1.261719 -2.449219 1.398438 -2.535156 C 1.539062 -2.621094 1.707031 -2.664062 1.90625 -2.664062 C 1.976562 -2.664062 2.054688 -2.660156 2.136719 -2.648438 C 2.214844 -2.636719 2.300781 -2.621094 2.390625 -2.601562 Z "/>
</g>
<g id="glyph-0-4">
<path d="M 1.078125 0.476562 L 1.25 0.0429688 L 0.28125 -2.335938 L -0.015625 -2.335938 L -0.015625 -2.59375 L 1.179688 -2.59375 L 1.179688 -2.335938 L 0.765625 -2.335938 L 1.492188 -0.550781 L 2.222656 -2.335938 L 1.835938 -2.335938 L 1.835938 -2.59375 L 2.808594 -2.59375 L 2.808594 -2.335938 L 2.519531 -2.335938 L 1.332031 0.585938 C 1.25 0.789062 1.160156 0.925781 1.058594 1 C 0.960938 1.074219 0.820312 1.109375 0.640625 1.109375 C 0.5625 1.109375 0.484375 1.105469 0.402344 1.089844 C 0.324219 1.078125 0.242188 1.058594 0.160156 1.035156 L 0.160156 0.539062 L 0.390625 0.539062 C 0.398438 0.648438 0.429688 0.730469 0.476562 0.777344 C 0.519531 0.824219 0.59375 0.851562 0.691406 0.851562 C 0.78125 0.851562 0.851562 0.824219 0.90625 0.773438 C 0.960938 0.726562 1.019531 0.625 1.078125 0.476562 Z "/>
</g>
<g id="glyph-0-5">
</g>
<g id="glyph-0-6">
<path d="M 2.570312 -0.777344 C 2.507812 -0.503906 2.386719 -0.292969 2.203125 -0.148438 C 2.023438 0 1.789062 0.0703125 1.503906 0.0703125 C 1.125 0.0703125 0.824219 -0.0546875 0.59375 -0.304688 C 0.363281 -0.554688 0.25 -0.886719 0.25 -1.296875 C 0.25 -1.714844 0.363281 -2.046875 0.59375 -2.292969 C 0.824219 -2.542969 1.125 -2.664062 1.503906 -2.664062 C 1.667969 -2.664062 1.832031 -2.648438 1.996094 -2.609375 C 2.15625 -2.570312 2.320312 -2.511719 2.484375 -2.433594 L 2.484375 -1.769531 L 2.222656 -1.769531 C 2.191406 -1.996094 2.117188 -2.164062 2 -2.269531 C 1.886719 -2.371094 1.722656 -2.425781 1.507812 -2.425781 C 1.265625 -2.425781 1.082031 -2.332031 0.960938 -2.140625 C 0.835938 -1.953125 0.773438 -1.671875 0.773438 -1.296875 C 0.773438 -0.925781 0.835938 -0.644531 0.957031 -0.453125 C 1.082031 -0.265625 1.265625 -0.171875 1.507812 -0.171875 C 1.703125 -0.171875 1.855469 -0.222656 1.972656 -0.320312 C 2.089844 -0.421875 2.167969 -0.574219 2.210938 -0.777344 Z "/>
</g>
<g id="glyph-0-7">
<path d="M 1.988281 -0.816406 L 1.988281 -1.363281 L 1.410156 -1.363281 C 1.1875 -1.363281 1.023438 -1.316406 0.914062 -1.21875 C 0.804688 -1.125 0.75 -0.976562 0.75 -0.777344 C 0.75 -0.597656 0.804688 -0.453125 0.914062 -0.347656 C 1.027344 -0.242188 1.175781 -0.191406 1.363281 -0.191406 C 1.550781 -0.191406 1.703125 -0.25 1.816406 -0.363281 C 1.933594 -0.480469 1.988281 -0.628906 1.988281 -0.816406 M 2.4375 -1.621094 L 2.4375 -0.257812 L 2.839844 -0.257812 L 2.839844 0 L 1.988281 0 L 1.988281 -0.28125 C 1.890625 -0.160156 1.777344 -0.0703125 1.644531 -0.015625 C 1.515625 0.0429688 1.363281 0.0703125 1.1875 0.0703125 C 0.902344 0.0703125 0.671875 -0.00390625 0.503906 -0.160156 C 0.332031 -0.3125 0.25 -0.519531 0.25 -0.777344 C 0.25 -1.046875 0.347656 -1.253906 0.539062 -1.402344 C 0.734375 -1.550781 1.007812 -1.625 1.359375 -1.625 L 1.988281 -1.625 L 1.988281 -1.804688 C 1.988281 -2 1.929688 -2.152344 1.808594 -2.261719 C 1.691406 -2.371094 1.523438 -2.425781 1.304688 -2.425781 C 1.128906 -2.425781 0.984375 -2.382812 0.878906 -2.300781 C 0.773438 -2.222656 0.707031 -2.101562 0.679688 -1.941406 L 0.449219 -1.941406 L 0.449219 -2.464844 C 0.605469 -2.53125 0.757812 -2.582031 0.90625 -2.617188 C 1.050781 -2.648438 1.195312 -2.664062 1.335938 -2.664062 C 1.695312 -2.664062 1.96875 -2.578125 2.15625 -2.398438 C 2.34375 -2.21875 2.4375 -1.960938 2.4375 -1.621094 Z "/>
</g>
<g id="glyph-0-8">
<path d="M 0.539062 -2.335938 L 0.144531 -2.335938 L 0.144531 -2.59375 L 0.539062 -2.59375 L 0.539062 -3.402344 L 0.992188 -3.402344 L 0.992188 -2.59375 L 1.835938 -2.59375 L 1.835938 -2.335938 L 0.992188 -2.335938 L 0.992188 -0.6875 C 0.992188 -0.464844 1.011719 -0.324219 1.054688 -0.265625 C 1.097656 -0.203125 1.175781 -0.171875 1.289062 -0.171875 C 1.40625 -0.171875 1.492188 -0.207031 1.546875 -0.273438 C 1.597656 -0.34375 1.628906 -0.457031 1.632812 -0.609375 L 1.96875 -0.609375 C 1.957031 -0.375 1.894531 -0.203125 1.777344 -0.09375 C 1.660156 0.015625 1.484375 0.0703125 1.25 0.0703125 C 0.992188 0.0703125 0.808594 0.0117188 0.699219 -0.101562 C 0.59375 -0.214844 0.539062 -0.410156 0.539062 -0.6875 Z "/>
</g>
</g>
</defs>
<g fill="rgb(100%, 52.54902%, 18.431373%)" fill-opacity="1">
<use xlink:href="#glyph-0-0" x="30" y="24.641602"/>
<use xlink:href="#glyph-0-1" x="33" y="24.641602"/>
<use xlink:href="#glyph-0-2" x="35" y="24.641602"/>
<use xlink:href="#glyph-0-3" x="38" y="24.641602"/>
<use xlink:href="#glyph-0-3" x="40" y="24.641602"/>
<use xlink:href="#glyph-0-4" x="42" y="24.641602"/>
<use xlink:href="#glyph-0-5" x="45" y="24.641602"/>
<use xlink:href="#glyph-0-6" x="47" y="24.641602"/>
<use xlink:href="#glyph-0-7" x="50" y="24.641602"/>
<use xlink:href="#glyph-0-8" x="53" y="24.641602"/>
</g>
</svg>
