<?xml version="1.0" encoding="UTF-8"?>
<svg xmlns="http://www.w3.org/2000/svg" xmlns:xlink="http://www.w3.org/1999/xlink" width="1920" height="1080" viewBox="0 0 1920 1080">
<defs>
<g>
<g id="glyph-0-0">
<path d="M 1.234375 -0.257812 L 1.6875 -0.257812 C 2.164062 -0.257812 2.527344 -0.394531 2.78125 -0.664062 C 3.03125 -0.933594 3.160156 -1.320312 3.160156 -1.828125 C 3.160156 -2.332031 3.03125 -2.714844 2.78125 -2.984375 C 2.527344 -3.25 2.164062 -3.382812 1.6875 -3.382812 L 1.234375 -3.382812 L 1.234375 -0.257812 M 0.277344 0 L 0.277344 -0.257812 L 0.738281 -0.257812 L 0.738281 -3.382812 L 0.277344 -3.382812 L 0.277344 -3.644531 L 1.726562 -3.644531 C 2.355469 -3.644531 2.84375 -3.484375 3.195312 -3.164062 C 3.546875 -2.84375 3.71875 -2.398438 3.71875 -1.828125 C 3.71875 -1.253906 3.546875 -0.804688 3.195312 -0.484375 C 2.84375 -0.160156 2.351562 0 1.726562 0 Z "/>
</g>
</g>
</defs>
<g fill="rgb(60.392157%, 44.705882%, 67.45098%)" fill-opacity="1">
<use xlink:href="#glyph-0-0" x="30" y="24.641602"/>
</g>
</svg>
